<svg width="100" height="100" viewBox="0 0 100 100" fill="none" xmlns="http://www.w3.org/2000/svg">
<path d="M94.8643 67.6692C94.8643 70.0577 94.3215 72.1747 93.2358 74.0204C92.2587 75.7574 90.9559 77.2231 89.3274 78.4173C87.6989 79.6115 85.9076 80.5344 83.9534 81.1858C82.1078 81.7286 80.3707 82 78.7422 82C76.2452 82 73.6938 81.4572 71.0882 80.3715C68.5912 79.1773 66.3113 77.4945 64.2486 75.3232C62.1858 73.1518 60.503 70.5462 59.2002 67.5064C57.8974 64.4665 57.246 61.1009 57.246 57.4097C57.246 51.0042 58.4402 45.5216 60.8287 40.9618C63.3257 36.402 66.257 32.6022 69.6226 29.5623C73.0967 26.4139 76.6252 23.9712 80.2078 22.2341C83.8991 20.3885 86.939 19.0857 89.3274 18.3257V23.5369C87.1561 24.8397 84.8219 26.2511 82.3249 27.771C79.9364 29.2909 77.7108 31.0823 75.648 33.145C73.6938 35.2078 72.0653 37.542 70.7626 40.1476C69.4598 42.7532 68.8083 45.6845 68.8083 48.9415C68.8083 50.57 68.9712 51.8728 69.2969 52.8499C69.6226 53.827 70.0026 54.5869 70.4369 55.1298C70.9797 55.6726 71.4682 56.0526 71.9025 56.2697C72.4453 56.4869 72.8796 56.5954 73.2053 56.5954C74.3995 56.5954 75.8652 56.2697 77.6022 55.6183C79.3393 54.8584 80.9678 54.4784 82.4877 54.4784C83.8991 54.4784 85.3105 54.8041 86.7218 55.4555C88.2418 55.9983 89.5989 56.8668 90.7931 58.0611C91.9873 59.1467 92.9644 60.5038 93.7244 62.1323C94.4844 63.7608 94.8643 65.6064 94.8643 67.6692ZM44.0755 67.3435C44.0755 69.732 43.5327 71.849 42.447 73.6947C41.4699 75.5403 40.1671 77.0602 38.5386 78.2545C36.9101 79.3401 35.1188 80.2087 33.1646 80.8601C31.319 81.4029 29.5276 81.6743 27.7905 81.6743C25.2935 81.6743 22.7965 81.1315 20.2994 80.0458C17.8024 78.8516 15.5225 77.2231 13.4598 75.1603C11.397 72.989 9.7142 70.3834 8.4114 67.3435C7.21717 64.3036 6.62006 60.9381 6.62006 57.2468C6.62006 50.8414 7.81429 45.3588 10.2028 40.799C12.6998 36.1306 15.6311 32.2765 18.9966 29.2366C22.4708 26.0882 25.9992 23.6455 29.5819 21.9084C33.1646 20.0628 36.1502 18.76 38.5386 18V23.374C36.3673 24.6768 34.0331 26.0882 31.5361 27.6081C29.1476 29.1281 26.922 30.9194 24.8592 32.9822C22.905 35.045 21.2223 37.3791 19.8109 39.9847C18.5081 42.4818 17.8567 45.4131 17.8567 48.7786C17.8567 51.8185 18.4538 53.827 19.648 54.8041C20.9508 55.7812 21.9279 56.2697 22.5793 56.2697C23.665 56.2697 25.0764 55.944 26.8134 55.2926C28.5505 54.6412 30.179 54.3155 31.6989 54.3155C33.1103 54.3155 34.5217 54.6412 35.933 55.2926C37.453 55.8355 38.81 56.704 40.0043 57.8982C41.1985 58.9839 42.1756 60.341 42.9356 61.9695C43.6955 63.4894 44.0755 65.2807 44.0755 67.3435Z" fill="#5A126C"/>
</svg>
